# xmcd CD database file
#
# Track frame offsets:
#	150
#	19629
#	34016
#	49491
#	66256
#	84561
#	102814
#	121984
#	141148
#	159266
#	178919
#	196331
#	212039
#	227170
#	239882
#	255847
#	270601
#	287596
#	305049
#
# Disc length: 4317 seconds
#
# Revision: 0
# Processed by: cddbd v1.5.1PL2 Copyright (c) Steve Scherf et al.
# Submitted via: CDex 1.51
#
DISCID=1210db13
DTITLE=Various Artist - CDX 384
DYEAR=2005
DGENRE=Country
TTITLE0=Wynonna, Michael McDonald, Eric Benet and Terry Dexter - Heart Of America
TTITLE1=Susan Haynes - Drinkin' In My Sunday Dress
TTITLE2=Kenny Rogers - I Can't Unlove You
TTITLE3=Craig Morgan - I Got You
TTITLE4=Lonestar - I'll Die Tryin'
TTITLE5=Hal Ketchum - Just This Side Of Heaven (Hal-lelujah)
TTITLE6=Rhett Akins - Kiss My Country Ass
TTITLE7=Rhett Akins - Kiss My Country Ass (Donkey Radio Version)
TTITLE8=LeAnn Rimes - Something's Gotta Give
TTITLE9=Keith Urban - Tonight, I Wanna Cry
TTITLE10=Lee Ann Womack - Twenty Years And Two Husbands Ago
TTITLE11=Shawn King - Find Me
TTITLE12=Scott Getlin - She Loves You
TTITLE13=John Cody Carter - Houston Bound
TTITLE14=Chris Gray - Something I Want
TTITLE15=Tim Murphy - Wild Wild West
TTITLE16=Marty McIntosh - Wouldn't That Be Great
TTITLE17=Stephen Frey - Why Can't We Just Go Home
TTITLE18=Connie Kis Andersen - Gone Wishin'
EXTD=YEAR: 2005
EXTT0=
EXTT1=
EXTT2=
EXTT3=
EXTT4=
EXTT5=
EXTT6=
EXTT7=
EXTT8=
EXTT9=
EXTT10=
EXTT11=
EXTT12=
EXTT13=
EXTT14=
EXTT15=
EXTT16=
EXTT17=
EXTT18=
PLAYORDER=
